<?xml version="1.0" encoding="UTF-8"?> <svg xmlns="http://www.w3.org/2000/svg" id="_Слой_2" data-name="Слой 2" viewBox="0 0 21.99 23.96"><defs><style> .cls-1 { fill: #fff; stroke-width: 0px; } </style></defs><g id="_Слой_1-2" data-name="Слой 1"><g><path class="cls-1" d="m21.98.62c.06-.27-.1-.54-.37-.6-.12-.03-.24-.01-.35.04L.78,10.8c-.71.38-.99,1.26-.61,1.97.12.23.3.42.51.55h0l4.56,2.88c.09.06.22.05.3-.02l12.16-10.87c.1-.09.26-.09.35,0,.09.09.09.24,0,.33l-9.72,12.19c-.09.11-.07.27.04.35,0,0,.01.01.02.02l6.43,4.07c.68.43,1.58.22,2.01-.45.09-.14.15-.28.18-.44L21.98.62Z"></path><path class="cls-1" d="m6.88,19.16c-.12-.07-.27-.04-.35.08-.03.04-.04.09-.04.13v3.59c0,.55.45,1,1,1,.27,0,.52-.11.71-.29l2.02-2.02c.1-.1.1-.26,0-.35-.01-.01-.03-.02-.04-.03l-3.3-2.1Z"></path></g></g></svg> 