<?xml version="1.0" encoding="UTF-8"?> <svg xmlns="http://www.w3.org/2000/svg" xmlns:xlink="http://www.w3.org/1999/xlink" version="1.1" id="Слой_1" x="0px" y="0px" viewBox="0 0 500 500" style="enable-background:new 0 0 500 500;" xml:space="preserve"> <style type="text/css"> .st0{fill:#FFFFFF;} </style> <path class="st0" d="M436,172.2h-28.4v-15.8c0-34.5-28-62.5-62.5-62.5h-28.4V78c0-34.5-28-62.5-62.5-62.5H66 c-34.5,0-62.5,28-62.5,62.5v188.3c0,34.5,28,62.5,62.5,62.5h28.4v15.9c0,34.5,28,62.5,62.5,62.5h28.4V423c0,34.5,28,62.5,62.5,62.5 H436c34.5,0,62.5-28,62.5-62.5V234.7C498.5,200.1,470.5,172.2,436,172.2z M94.4,156.3v143.5H66c-18.5,0-33.4-15-33.5-33.5V78 c0-18.5,15-33.4,33.5-33.5h188.3c18.5,0,33.4,15,33.5,33.5v15.8h-131C122.3,93.9,94.4,121.8,94.4,156.3z M185.2,234.7v143.5h-28.4 c-18.5,0-33.4-15-33.5-33.5V156.3c0-18.5,15-33.4,33.5-33.5h188.3c18.5,0,33.4,15,33.5,33.5v15.8h-131 C213.2,172.2,185.2,200.1,185.2,234.7z M469.5,423c0,18.5-15,33.4-33.5,33.5H247.7c-18.5,0-33.4-15-33.5-33.5V234.7 c0-18.5,15-33.4,33.5-33.5H436c18.5,0,33.4,15,33.5,33.5V423z"></path> </svg> 