<?xml version="1.0" encoding="UTF-8"?> <svg xmlns="http://www.w3.org/2000/svg" xmlns:xlink="http://www.w3.org/1999/xlink" version="1.1" id="Слой_1" x="0px" y="0px" viewBox="0 0 500 500" style="enable-background:new 0 0 500 500;" xml:space="preserve"> <style type="text/css"> .st0{fill:#FFFFFF;} </style> <path class="st0" d="M493.7,463.5c-40.6-41.8-123.2-123.8-123.2-123.8c4.4-5.3,5.9-7.6,5.5-8c31-42.3,46.1-96.3,39.4-148.4 C401.6,75.7,313.2,2.7,210.4,2.7c-78.1,0-154,48.8-187.2,119.7c-25.5,54.2-25.5,119.7,0,174c33,70.3,107.7,118.9,185.9,119.7 c0.9,0,1.8,0,2.7,0c45.9-0.4,91.3-17,127.3-45.5l2.3-1.6c0.1,0.1,87,88.7,123.8,124.4C482.4,509.1,507.8,478.7,493.7,463.5z M211.5,381.6c-0.7,0-1.5,0-2.2,0c-79.4-0.8-153.5-62.2-168.2-140.9c-10.4-55.5,9.2-115.6,50.1-155c47.7-46,122.6-61.4,184.9-35.4 c55.7,23.3,97.5,77.5,105.2,137.3c6.6,51.2-11.8,104.8-47.9,141.8C301.7,361.8,257.3,381.2,211.5,381.6z"></path> </svg> 