<?xml version="1.0" encoding="UTF-8"?> <svg xmlns="http://www.w3.org/2000/svg" width="1440" height="301" viewBox="0 0 1440 301" fill="none"><path opacity="0.2" d="M1216.32 111.213L1484.38 300.768L1484.68 299.264L1217.87 110.595V109.609H1216.48L1187.74 89.287H1191.35V87.684H1185.47L1156.74 67.362H1164.84V65.758H1154.47L1125.74 45.437H1138.32V43.833H1123.47L1094.74 23.511H1111.81V21.908H1092.47L1063.73 1.603H1085.29V0H354.381V1.603H375.942L347.208 21.925H327.868V23.529H344.94L316.206 43.851H301.354V45.454H313.941L285.207 65.776H274.843V67.38H282.942L254.208 87.701H248.33V89.305H251.94L223.206 109.627H221.816V110.612L-45 299.264L-44.7074 300.768L223.354 111.213H262.502L236.16 131.535H195.297V133.138H234.083L207.742 153.46H168.784V155.064H205.664L179.323 175.385H142.268V176.989H177.245L150.904 197.311H115.757V198.914H148.831L122.49 219.236H89.2431V220.84H120.412L94.0713 241.162H62.7295V242.765H91.996L18.7136 299.299L19.0287 300.78L94.2338 242.765H149.056L82.4247 299.305L82.7647 300.768L151.124 242.765H206.116L146.133 299.316L146.506 300.757L208.014 242.765H263.174L209.839 299.34L210.247 300.739L264.904 242.765H320.232L273.543 299.334L273.993 300.687L321.797 242.736H377.284L337.244 299.363L337.744 300.652L378.697 242.736H434.335L400.94 299.41L401.498 300.605L435.597 242.736H491.377L464.631 299.474L465.254 300.547L492.505 242.736H548.41L528.32 299.561L529.015 300.459L549.423 242.736H605.433L592.011 299.678L592.776 300.337L606.353 242.736H662.438L655.709 299.835L656.527 300.185L663.298 242.736H719.423V300.01H720.261V242.736H776.386L783.157 300.185L783.977 299.835L777.248 242.736H833.333L846.91 300.337L847.673 299.678L834.251 242.736H890.261L910.669 300.459L911.364 299.561L891.274 242.736H947.179L974.43 300.547L975.052 299.474L948.306 242.736H1004.09L1038.19 300.605L1038.74 299.41L1005.35 242.736H1060.99L1101.94 300.652L1102.44 299.363L1062.4 242.736H1117.89L1165.69 300.687L1166.14 299.334L1119.45 242.736H1174.78L1229.44 300.71L1229.84 299.311L1176.51 242.736H1231.67L1293.18 300.728L1293.55 299.287L1233.57 242.736H1288.56L1356.92 300.739L1357.26 299.276L1290.63 242.736H1345.45L1420.66 300.751L1420.97 299.27L1347.69 242.736H1376.96V241.132H1345.61L1319.27 220.811H1350.44V219.207H1317.18L1290.84 198.885H1323.91V197.282H1288.76L1262.43 176.977H1297.4V175.374H1260.35L1234.01 155.052H1270.89V153.448H1231.93L1205.59 133.127H1244.37V131.523H1203.51L1177.17 111.201H1216.32V111.213ZM1214.05 109.609H1175.09L1148.75 89.287H1185.32L1214.05 109.609ZM450.909 45.442H482.986L466.224 65.764H431.752L450.909 45.442ZM430.022 65.764H395.717L417.267 45.442H449.177L430.022 65.764ZM884.415 109.609H844.197L837.014 89.287H874.836L884.415 109.609ZM875.964 89.287H913.662L925.633 109.609H885.543L875.964 89.287ZM843.187 109.609H802.867L798.079 89.287H836.004L843.187 109.609ZM801.949 109.609H761.554L759.158 89.287H797.161L801.949 109.609ZM760.691 109.609H720.256V89.287H758.296L760.691 109.609ZM719.418 109.609H678.983L681.378 89.287H719.418V109.609ZM678.12 109.609H637.725L642.513 89.287H680.513L678.12 109.609ZM636.807 109.609H596.486L603.67 89.287H641.595L636.807 109.609ZM595.474 109.609H555.258L564.837 89.287H602.66L595.474 109.609ZM554.131 109.609H514.04L526.012 89.287H563.71L554.131 109.609ZM512.778 109.609H472.83L487.197 89.287H524.752L512.778 109.609ZM511.835 111.213L499.863 131.535H457.33L471.697 111.213H511.835ZM513.095 111.213H553.376L543.797 131.535H501.124L513.095 111.213ZM554.503 111.213H594.909L587.725 131.535H544.925L554.503 111.213ZM595.919 111.213H636.429L631.641 131.535H588.735L595.919 111.213ZM637.347 111.213H677.93L675.535 131.535H632.556L637.347 111.213ZM678.793 111.213H719.418V131.535H676.397L678.793 111.213ZM720.256 111.213H760.881L763.276 131.535H720.258V111.213H720.256ZM761.741 111.213H802.327L807.115 131.535H764.137L761.741 111.213ZM803.244 111.213H843.752L850.936 131.535H808.032L803.244 111.213ZM844.765 111.213H885.17L894.749 131.535H851.948L844.765 111.213ZM886.298 111.213H926.578L938.55 131.535H895.877L886.298 111.213ZM927.839 111.213H967.976L982.343 131.535H939.81L927.839 111.213ZM926.896 109.609L914.924 89.287H952.479L966.846 109.609H926.896ZM913.979 87.684L902.008 67.362H936.98L951.347 87.684H913.979ZM912.717 87.684H875.209L865.63 67.362H900.742L912.717 87.684ZM874.081 87.684H836.446L829.263 67.362H864.503L874.081 87.684ZM835.436 87.684H797.699L792.91 67.362H828.253L835.436 87.684ZM796.781 87.684H758.968L756.573 67.362H791.99L796.781 87.684ZM758.108 87.684H720.256V67.362H755.713L758.108 87.684ZM719.418 87.684H681.565L683.961 67.362H719.418V87.684ZM680.705 87.684H642.893L647.681 67.362H683.098L680.705 87.684ZM641.973 87.684H604.235L611.418 67.362H646.761L641.973 87.684ZM603.225 87.684H565.592L575.171 67.362H610.408L603.225 87.684ZM564.465 87.684H526.957L538.929 67.362H574.041L564.465 87.684ZM525.694 87.684H488.329L502.696 67.362H537.666L525.694 87.684ZM486.919 87.684H449.704L466.466 67.362H501.286L486.919 87.684ZM485.787 89.287L471.42 109.609H431.622L448.384 89.287H485.787ZM470.285 111.213L455.918 131.535H413.537L430.299 111.213H470.285ZM454.785 133.132L440.418 153.454H395.452L412.214 133.132H454.785ZM456.195 133.132H498.916L486.944 153.454H441.828L456.195 133.132ZM500.178 133.132H543.042L533.463 153.454H488.204L500.178 133.132ZM544.169 133.132H587.158L579.974 153.454H534.591L544.169 133.132ZM588.168 133.132H631.261L626.473 153.454H580.984L588.168 133.132ZM632.181 133.132H675.35L672.954 153.454H627.393L632.181 133.132ZM676.21 133.132H719.418V153.454H673.814L676.21 133.132ZM720.256 133.132H763.464L765.859 153.454H720.256V133.132ZM764.324 133.132H807.492L812.28 153.454H766.717L764.324 133.132ZM808.413 133.132H851.506L858.689 153.454H813.203L808.413 133.132ZM852.513 133.132H895.504L905.083 153.454H859.699L852.513 133.132ZM896.632 133.132H939.495L951.467 153.454H906.208L896.632 133.132ZM940.755 133.132H983.479L997.845 153.454H952.729L940.755 133.132ZM984.889 133.132H1027.46L1044.22 153.454H999.256L984.889 133.132ZM983.756 131.529L969.387 111.213H1009.37L1026.14 131.535H983.756V131.529ZM968.254 109.609L953.887 89.287H991.292L1008.05 109.609H968.254ZM952.754 87.684L938.387 67.362H973.207L989.969 87.684H952.754ZM937.255 65.764L922.888 45.442H955.125L971.887 65.764H937.255ZM935.845 65.764H901.062L889.091 45.442H921.48L935.845 65.764ZM899.8 65.764H864.875L855.296 45.442H887.826L899.8 65.764ZM863.747 65.764H828.698L821.514 45.442H854.171L863.747 65.764ZM827.688 65.764H792.535L787.747 45.442H820.507L827.688 65.764ZM791.615 65.764H756.386L753.99 45.442H786.825L791.615 65.764ZM755.525 65.764H720.256V45.442H753.13L755.525 65.764ZM719.418 65.764H684.148L686.544 45.442H719.418V65.764ZM683.288 65.764H648.061L652.849 45.442H685.684L683.288 65.764ZM647.138 65.764H611.984L619.167 45.442H651.926L647.138 65.764ZM610.973 65.764H575.924L585.502 45.442H618.157L610.973 65.764ZM574.799 65.764H539.874L551.845 45.442H584.375L574.799 65.764ZM538.611 65.764H503.829L518.196 45.442H550.583L538.611 65.764ZM502.419 65.764H467.787L484.549 45.442H516.786L502.419 65.764ZM464.901 67.368L448.139 87.69H411.084L430.242 67.368H464.901ZM446.819 89.287L430.057 109.609H390.419L409.574 89.287H446.819ZM428.734 111.213L411.972 131.535H369.751L388.906 111.213H428.734ZM410.649 133.132L393.887 153.454H349.081L368.238 133.132H410.649ZM392.567 155.052L375.804 175.374H328.415L347.57 155.052H392.567ZM394.132 155.052H439.285L424.918 175.374H377.369L394.132 155.052ZM440.696 155.052H485.999L474.027 175.374H426.329L440.696 155.052ZM487.262 155.052H532.708L523.129 175.374H475.288L487.262 155.052ZM533.836 155.052H579.407L572.223 175.374H524.257L533.836 155.052ZM580.419 155.052H626.095L621.307 175.374H573.236L580.419 155.052ZM627.016 155.052H672.767L670.371 175.374H622.225L627.016 155.052ZM673.624 155.052H719.415V175.374H671.229L673.624 155.052ZM720.256 155.052H766.047L768.442 175.374H720.256V155.052ZM766.907 155.052H812.658L817.446 175.374H769.3L766.907 155.052ZM813.578 155.052H859.254L866.438 175.374H818.366L813.578 155.052ZM860.264 155.052H905.838L915.417 175.374H867.448L860.264 155.052ZM906.966 155.052H952.412L964.383 175.374H916.542L906.966 155.052ZM953.672 155.052H998.978L1013.35 175.374H965.646L953.672 155.052ZM1000.39 155.052H1045.54L1062.3 175.374H1014.76L1000.39 155.052ZM1047.11 155.052H1092.1L1111.26 175.374H1063.87L1047.11 155.052ZM1045.78 153.448L1029.02 133.127H1071.43L1090.59 153.448H1045.78ZM1027.7 131.529L1010.94 111.207H1050.77L1069.92 131.529H1027.7ZM1009.62 109.609L992.855 89.287H1030.1L1049.25 109.609H1009.62ZM991.535 87.684L974.772 67.362H1009.43L1028.59 87.684H991.535ZM973.45 65.764L956.687 45.442H988.764L1007.92 65.764H973.45ZM990.495 45.442H1022.41L1043.96 65.764H1009.65L990.495 45.442ZM1024.3 45.442H1056.04L1079.99 65.764H1045.85L1024.3 45.442ZM1022.6 43.845L1001.05 23.523H1030.21L1054.16 43.845H1022.6ZM1020.71 43.845H988.984L969.829 23.523H999.158L1020.71 43.845ZM987.254 43.845H955.365L938.603 23.523H968.097L987.254 43.845ZM953.802 43.845H921.753L907.386 23.523H937.04L953.802 43.845ZM920.343 43.845H888.143L876.172 23.523H905.976L920.343 43.845ZM886.883 43.845H854.541L844.962 23.523H874.909L886.883 43.845ZM853.414 43.845H820.947L813.763 23.523H843.837L853.414 43.845ZM819.937 43.845H787.367L782.579 23.523H812.756L819.937 43.845ZM786.447 43.845H753.8L751.405 23.523H781.656L786.447 43.845ZM752.943 43.845H720.258V23.523H750.55L752.943 43.845ZM719.418 43.845H686.734L689.129 23.523H719.421V43.845H719.418ZM685.871 43.845H653.227L658.015 23.523H688.266L685.871 43.845ZM652.306 43.845H619.737L626.921 23.523H657.095L652.306 43.845ZM618.724 43.845H586.26L595.836 23.523H625.908L618.724 43.845ZM585.132 43.845H552.791L564.762 23.523H594.709L585.132 43.845ZM551.53 43.845H519.331L533.698 23.523H563.502L551.53 43.845ZM517.918 43.845H485.872L502.634 23.523H532.288L517.918 43.845ZM484.306 43.845H452.42L471.575 23.523H501.069L484.306 43.845ZM450.689 43.845H418.968L440.518 23.523H469.844L450.689 43.845ZM417.07 43.845H385.518L409.464 23.523H438.623L417.07 43.845ZM415.37 45.442L393.819 65.764H359.685L383.63 45.442H415.37ZM392.119 67.368L370.569 87.69H333.849L357.794 67.368H392.119ZM394.019 67.368H428.511L409.354 87.69H372.466L394.019 67.368ZM407.844 89.287L388.689 109.609H349.218L370.769 89.287H407.844ZM387.176 111.213L368.021 131.535H325.965L347.515 111.213H387.176ZM366.511 133.132L347.353 153.454H302.714L324.265 133.132H366.511ZM345.843 155.052L326.688 175.374H279.466L301.017 155.052H345.843ZM325.175 176.977L306.02 197.299H256.216L277.766 176.977H325.175ZM326.905 176.977H374.482L357.719 197.299H307.748L326.905 176.977ZM376.047 176.977H423.783L409.416 197.299H359.285L376.047 176.977ZM425.196 176.977H473.082L461.111 197.299H410.829L425.196 176.977ZM474.345 176.977H522.376L512.798 197.299H462.373L474.345 176.977ZM523.502 176.977H571.656L564.472 197.299H513.923L523.502 176.977ZM572.668 176.977H620.927L616.139 197.299H565.485L572.668 176.977ZM621.847 176.977H670.181L667.786 197.299H617.057L621.847 176.977ZM671.042 176.977H719.415V197.299H668.646L671.042 176.977ZM720.256 176.977H768.63L771.025 197.299H720.256V176.977ZM769.492 176.977H817.826L822.614 197.299H771.885L769.492 176.977ZM818.744 176.977H867.003L874.186 197.299H823.532L818.744 176.977ZM868.016 176.977H916.172L925.751 197.299H875.199L868.016 176.977ZM917.297 176.977H965.329L977.3 197.299H926.876L917.297 176.977ZM966.591 176.977H1014.48L1028.85 197.299H978.563L966.591 176.977ZM1015.89 176.977H1063.62L1080.39 197.299H1030.25L1015.89 176.977ZM1065.19 176.977H1112.77L1131.92 197.299H1081.95L1065.19 176.977ZM1114.5 176.977H1161.91L1183.46 197.299H1133.65L1114.5 176.977ZM1112.99 175.374L1093.83 155.052H1138.66L1160.21 175.374H1112.99ZM1092.32 153.448L1073.16 133.127H1115.41L1136.96 153.448H1092.32ZM1071.65 131.529L1052.5 111.207H1092.16L1113.71 131.529H1071.65ZM1050.99 109.609L1031.83 89.287H1068.91L1090.46 109.609H1050.99ZM1030.32 87.684L1011.16 67.362H1045.65L1067.2 87.684H1030.32ZM1047.55 67.368H1081.88L1105.82 87.69H1069.1L1047.55 67.368ZM1083.94 67.368H1118.1L1144.44 87.69H1107.89L1083.94 67.368ZM1082.06 65.764L1058.11 45.442H1089.68L1116.02 65.764H1082.06ZM1056.22 43.845L1032.28 23.523H1061.27L1087.61 43.845H1056.22ZM1030.39 21.919L1006.44 1.597H1032.85L1059.19 21.919H1030.39ZM1028.32 21.919H999.353L977.803 1.597H1004.38L1028.32 21.919ZM997.455 21.919H968.317L949.159 1.603H975.903L997.455 21.919ZM966.589 21.919H937.282L920.52 1.597H947.431L966.589 21.919ZM935.717 21.919H906.253L891.886 1.597H918.957L935.717 21.919ZM904.843 21.919H875.226L863.255 1.597H890.476L904.843 21.919ZM873.966 21.919H844.21L834.631 1.597H861.995L873.966 21.919ZM843.082 21.919H813.198L806.015 1.603H833.503L843.082 21.919ZM812.186 21.919H782.199L777.411 1.603H805.002L812.186 21.919ZM781.281 21.919H751.22L748.824 1.597H776.493L781.281 21.919ZM750.357 21.919H720.256V1.603H747.962L750.357 21.919ZM719.418 21.919H689.317L691.712 1.597H719.418V21.919ZM688.454 21.919H658.392L663.18 1.597H690.849L688.454 21.919ZM657.472 21.919H627.486L634.669 1.597H662.26L657.472 21.919ZM626.475 21.919H596.594L606.173 1.597H633.661L626.475 21.919ZM595.466 21.919H565.707L577.679 1.597H605.043L595.466 21.919ZM564.447 21.919H534.831L549.198 1.597H576.419L564.447 21.919ZM533.421 21.919H503.957L520.719 1.597H547.79L533.421 21.919ZM502.391 21.919H473.087L492.242 1.597H519.154L502.391 21.919ZM471.357 21.919H442.221L463.771 1.597H490.515L471.357 21.919ZM440.32 21.919H411.352L435.297 1.597H461.871L440.32 21.919ZM409.284 21.919H380.482L406.823 1.597H433.23L409.284 21.919ZM407.396 23.523L383.45 43.845H352.066L378.407 23.523H407.396ZM381.563 45.442L357.617 65.764H323.65L349.991 45.442H381.563ZM355.727 67.368L331.781 87.69H295.231L321.572 67.368H355.727ZM329.893 89.287L305.947 109.609H266.815L293.156 89.287H329.893ZM331.961 89.287H368.868L347.318 109.609H308.015L331.961 89.287ZM345.618 111.213L324.067 131.535H282.182L306.127 111.213H345.618ZM322.367 133.132L300.817 153.454H256.348L280.294 133.132H322.367ZM299.116 155.052L277.566 175.374H230.512L254.458 155.052H299.116ZM275.866 176.977L254.315 197.299H204.679L228.624 176.977H275.866ZM252.615 198.897L231.065 219.219H178.845L202.791 198.897H252.615ZM254.515 198.897H304.51L285.355 219.219H232.968L254.515 198.897ZM306.237 198.897H356.397L339.634 219.219H287.08L306.237 198.897ZM357.964 198.897H408.284L393.917 219.219H341.202L357.964 198.897ZM409.696 198.897H460.168L448.197 219.219H395.332L409.696 198.897ZM461.428 198.897H512.043L502.464 219.219H449.457L461.428 198.897ZM513.168 198.897H563.907L556.724 219.219H503.592L513.168 198.897ZM564.917 198.897H615.759L610.971 219.219H557.734L564.917 198.897ZM616.682 198.897H667.599L665.203 219.219H611.891L616.682 198.897ZM668.459 198.897H719.418V219.219H666.066L668.459 198.897ZM720.256 198.897H771.215L773.61 219.219H720.258V198.897H720.256ZM772.075 198.897H822.994L827.783 219.219H774.47L772.075 198.897ZM823.912 198.897H874.754L881.937 219.219H828.7L823.912 198.897ZM875.764 198.897H926.503L936.082 219.219H882.948L875.764 198.897ZM927.631 198.897H978.245L990.217 219.219H937.21L927.631 198.897ZM979.508 198.897H1029.98L1044.35 219.219H991.48L979.508 198.897ZM1031.39 198.897H1081.71L1098.47 219.219H1045.76L1031.39 198.897ZM1083.27 198.897H1133.44L1152.59 219.219H1100.04L1083.27 198.897ZM1135.16 198.897H1185.16L1206.71 219.219H1154.32L1135.16 198.897ZM1187.06 198.897H1236.88L1260.83 219.219H1208.61L1187.06 198.897ZM1185.36 197.293L1163.81 176.972H1211.05L1234.99 197.293H1185.36ZM1162.11 175.374L1140.55 155.052H1185.21L1209.16 175.374H1162.11ZM1138.85 153.448L1117.3 133.127H1159.38L1183.33 153.448H1138.85ZM1115.6 131.529L1094.05 111.207H1133.55L1157.49 131.529H1115.6ZM1092.35 109.609L1070.8 89.287H1107.71L1131.66 109.609H1092.35ZM1109.78 89.287H1146.52L1172.86 109.609H1133.72L1109.78 89.287ZM1183.06 87.684H1146.68L1120.34 67.362H1154.32L1183.06 87.684ZM1152.05 65.764H1118.26L1091.92 45.442H1123.32L1152.05 65.764ZM1121.05 43.845H1089.84L1063.5 23.523H1092.32L1121.05 43.845ZM1090.05 21.919H1061.43L1035.09 1.603H1061.32L1090.05 21.919ZM378.357 1.603H404.588L378.247 21.925H349.623L378.357 1.603ZM347.355 23.523H376.169L349.828 43.845H318.619L347.355 23.523ZM316.354 45.442H347.751L321.409 65.764H287.62L316.354 45.442ZM285.355 67.368H319.334L292.993 87.69H256.618L285.355 67.368ZM225.619 109.609L254.353 89.287H290.918L264.577 109.609H225.619ZM264.737 111.213H304.06L280.114 131.535H238.398L264.737 111.213ZM236.32 133.132H278.226L254.28 153.454H209.979L236.32 133.132ZM207.904 155.052H252.393L228.447 175.374H181.563L207.904 155.052ZM179.485 176.977H226.557L202.611 197.299H153.147L179.485 176.977ZM151.069 198.897H200.726L176.78 219.219H124.728L151.069 198.897ZM96.3116 241.138L122.653 220.817H174.892L150.947 241.138H96.3116ZM153.012 241.138L176.958 220.817H229.367L207.817 241.138H153.012ZM209.714 241.138L231.265 220.817H283.842L264.684 241.138H209.714ZM266.415 241.138L285.57 220.817H338.314L321.552 241.138H266.415ZM323.117 241.138L339.879 220.817H392.784L378.417 241.138H323.117ZM379.827 241.138L394.194 220.817H447.249L435.277 241.138H379.827ZM436.537 241.138L448.509 220.817H501.706L492.127 241.138H436.537ZM493.258 241.138L502.836 220.817H556.159L548.975 241.138H493.258ZM549.985 241.138L557.169 220.817H610.596L605.808 241.138H549.985ZM606.725 241.138L611.513 220.817H665.016L662.62 241.138H606.725ZM663.48 241.138L665.876 220.817H719.418V241.138H663.48ZM720.256 241.138V220.817H773.798L776.193 241.138H720.256ZM777.053 241.138L774.658 220.817H828.16L832.948 241.138H777.053ZM833.868 241.138L829.08 220.817H882.505L889.688 241.138H833.868ZM890.699 241.138L883.515 220.817H936.837L946.416 241.138H890.699ZM947.544 241.138L937.965 220.817H991.162L1003.13 241.138H947.544ZM1004.4 241.138L992.425 220.817H1045.48L1059.85 241.138H1004.4ZM1061.26 241.138L1046.89 220.817H1099.79L1116.56 241.138H1061.26ZM1118.12 241.138L1101.36 220.817H1154.1L1173.26 241.138H1118.12ZM1174.99 241.138L1155.83 220.817H1208.41L1229.96 241.138H1174.99ZM1231.86 241.138L1210.31 220.817H1262.72L1286.66 241.138H1231.86ZM1343.36 241.138H1288.73L1264.78 220.817H1317.02L1343.36 241.138ZM1314.95 219.213H1262.9L1238.95 198.891H1288.61L1314.95 219.213ZM1286.53 197.293H1237.06L1213.11 176.972H1260.19L1286.53 197.293ZM1258.11 175.374H1211.23L1187.28 155.052H1231.77L1258.11 175.374ZM1229.69 153.448H1185.39L1161.44 133.127H1203.35L1229.69 153.448ZM1201.28 131.529H1159.56L1135.61 111.207H1174.94L1201.28 131.529Z" fill="url(#paint0_linear_481_5077)"></path><defs><linearGradient id="paint0_linear_481_5077" x1="745.948" y1="228.516" x2="743.368" y2="31.156" gradientUnits="userSpaceOnUse"><stop stop-color="#0059FF" stop-opacity="0"></stop><stop offset="0.408975" stop-color="#2C76FF" stop-opacity="0.9"></stop><stop offset="1" stop-color="#0059FF" stop-opacity="0"></stop></linearGradient></defs></svg> 