<?xml version="1.0" encoding="UTF-8"?> <svg xmlns="http://www.w3.org/2000/svg" width="97" height="81" viewBox="0 0 97 81" fill="none"><path d="M2.84443 37.1241C3.06526 37.0136 3.28618 36.9087 3.50149 36.8093C7.24446 35.0753 11.0371 33.4518 14.8243 31.8282C15.0285 31.8282 15.3707 31.5908 15.5639 31.5135C15.8565 31.3865 16.1492 31.265 16.4418 31.138C17.0049 30.895 17.568 30.6575 18.1256 30.4146C19.2518 29.9341 20.3724 29.4537 21.4986 28.9732L28.2392 26.0851C32.733 24.1634 37.2324 22.2361 41.7262 20.3144C46.22 18.3926 50.7192 16.4654 55.213 14.5436C59.7068 12.6219 64.206 10.6946 68.6998 8.77291C73.1936 6.85117 77.693 4.92391 82.1868 3.00217C83.186 2.57143 84.268 1.93084 85.339 1.74308C86.2389 1.58294 87.1166 1.27371 88.022 1.10252C89.7389 0.776706 91.6324 0.644184 93.2776 1.35655C93.8462 1.60505 94.3707 1.95295 94.8068 2.38921C96.8936 4.45452 96.601 7.84515 96.1593 10.7498C93.0844 30.9944 90.0094 51.2444 86.9289 71.489C86.5093 74.2666 85.9352 77.3149 83.7435 79.071C81.8886 80.5564 79.2497 80.7221 76.9586 80.0926C74.6676 79.4575 72.6471 78.1267 70.6652 76.8179C62.445 71.373 54.2193 65.928 45.9991 60.4831C44.0448 59.1909 41.8698 57.5011 41.8918 55.1542C41.9029 53.7405 42.7475 52.4814 43.6087 51.3604C50.7523 42.0389 61.0593 35.6331 68.7275 26.7423C69.8095 25.4887 70.6597 23.2246 69.1747 22.5012C68.2914 22.0704 67.2755 22.6558 66.4695 23.2135C56.3336 30.2544 46.2034 37.3008 36.0676 44.3416C32.7607 46.6389 29.2938 49.0024 25.3079 49.5657C21.7416 50.0737 18.1532 49.0797 14.7028 48.0636C11.81 47.2132 8.92265 46.3407 6.04641 45.4405C4.5172 44.9656 2.9383 44.4521 1.75689 43.3752C0.575477 42.2984 -0.103467 40.4871 0.608692 39.0513C1.05586 38.1512 1.92261 37.5824 2.83351 37.1185L2.84443 37.1241Z" fill="white"></path></svg> 