<?xml version="1.0" encoding="UTF-8"?> <svg xmlns="http://www.w3.org/2000/svg" width="153" height="63" viewBox="0 0 153 63" fill="none"><path d="M28.5489 28.6587V36.8785H26.1181V31.8879L26.1769 31.3008H26.1064L26.0007 31.4887L23.4878 35.4694H21.5972L18.9551 31.3008H18.8847L18.9669 31.8879V36.8785H16.5361V28.6587H19.8241L22.4427 32.7686L22.5014 32.9213H22.5719L22.6306 32.7686L25.2492 28.6587H28.5489Z" fill="white"></path><path d="M38.387 36.8785L37.7529 35.5164H33.1968L32.5627 36.8785H29.944L34.0422 28.6587H36.9192L41.0056 36.8785H38.387ZM36.8957 33.5789L35.5688 30.7958L35.5335 30.6432H35.4279L35.3926 30.7958L34.0657 33.5789H36.8957Z" fill="white"></path><path d="M49.6767 28.6587V30.7019H46.3536V36.8785H43.9111V30.7019H40.5879V28.6587H49.6767Z" fill="white"></path><path d="M60.4023 35.5634C59.1419 36.5889 57.588 37.1017 55.7405 37.1017C55.122 37.1017 54.5779 37.0664 54.1082 36.996C53.6463 36.9255 53.204 36.7924 52.7813 36.5967C52.3664 36.401 52.0219 36.1466 51.7479 35.8334C51.4818 35.5125 51.2704 35.0937 51.1138 34.577C50.9651 34.0603 50.8907 33.4536 50.8907 32.7569C50.8907 32.0601 50.969 31.4573 51.1256 30.9485C51.2822 30.4397 51.5014 30.0247 51.7832 29.7038C52.065 29.3828 52.4329 29.1284 52.887 28.9405C53.341 28.7448 53.8303 28.6117 54.3548 28.5413C54.8793 28.4708 55.4978 28.4356 56.2102 28.4356C57.0165 28.4356 57.7132 28.4982 58.3004 28.6235C58.8953 28.7409 59.4785 28.9131 60.05 29.1401L59.4276 31.1129C58.4804 30.6902 57.3218 30.4788 55.9518 30.4788C55.5604 30.4788 55.2316 30.4944 54.9654 30.5258C54.6993 30.5492 54.4683 30.6001 54.2726 30.6784C54.0769 30.7489 53.9243 30.835 53.8147 30.9368C53.7051 31.0385 53.615 31.1834 53.5446 31.3712C53.4819 31.5591 53.4389 31.7587 53.4154 31.9701C53.3997 32.1815 53.3919 32.4516 53.3919 32.7804C53.3919 33.2657 53.4154 33.6415 53.4624 33.9076C53.5093 34.1738 53.6111 34.4008 53.7677 34.5887C53.9321 34.7688 54.1513 34.8901 54.4253 34.9527C54.7071 35.0154 55.0946 35.0467 55.5878 35.0467C56.3941 35.0467 57.0869 34.9449 57.6662 34.7414C58.2534 34.5378 58.8131 34.2599 59.3454 33.9076L60.4023 35.5634Z" fill="white"></path><path d="M68.8906 28.6587H71.333V36.8785H68.8906V33.7433H64.6162V36.8785H62.1738V28.6587H64.6162V31.6883H68.8906V28.6587Z" fill="white"></path><path d="M86.6455 29.1519L86.0466 30.9837C84.8175 30.5923 83.6041 30.3966 82.4064 30.3966C81.8819 30.3966 81.5022 30.4357 81.2673 30.514C81.0403 30.5923 80.9268 30.7293 80.9268 30.925C80.9268 31.1755 81.1421 31.3595 81.5726 31.4769C81.7214 31.5161 82.332 31.6217 83.4045 31.794C83.9133 31.8723 84.3361 31.9505 84.6727 32.0288C85.0093 32.1071 85.342 32.2128 85.6708 32.3459C85.9996 32.479 86.254 32.6316 86.4341 32.8038C86.622 32.9761 86.7707 33.1913 86.8803 33.4497C86.9977 33.708 87.0565 34.0133 87.0565 34.3656C87.0565 35.2894 86.6963 35.9783 85.9761 36.4323C85.2559 36.8864 84.2226 37.1134 82.8761 37.1134C80.9894 37.1134 79.3689 36.6985 78.0146 35.8687L79.0949 34.119C79.5725 34.4008 80.1753 34.6435 80.9033 34.8471C81.6313 35.0506 82.3594 35.1485 83.0874 35.1406C84.0816 35.1328 84.5788 34.9293 84.5788 34.53C84.5788 34.4596 84.5592 34.393 84.52 34.3304C84.4809 34.2678 84.4144 34.2169 84.3204 34.1777C84.2343 34.1308 84.1443 34.0916 84.0503 34.0603C83.9564 34.029 83.8194 33.9977 83.6393 33.9664C83.4671 33.9272 83.3066 33.8998 83.1579 33.8842C83.017 33.8607 82.8252 33.8294 82.5825 33.7902C82.3398 33.7511 82.1245 33.7159 81.9367 33.6845C81.3495 33.5906 80.8642 33.4888 80.4806 33.3792C80.097 33.2618 79.7447 33.1091 79.4237 32.9213C79.1106 32.7334 78.8757 32.4985 78.7192 32.2167C78.5626 31.9349 78.4765 31.5943 78.4608 31.1951C78.4217 30.2713 78.7622 29.5824 79.4824 29.1284C80.2105 28.6743 81.2634 28.4395 82.6412 28.4238C83.5493 28.4238 84.3439 28.5021 85.025 28.6587C85.706 28.8074 86.2462 28.9718 86.6455 29.1519Z" fill="white"></path><path d="M95.7994 28.6587H98.7233L94.5312 34.213V36.8785H92.0887V34.213L87.8849 28.6587H90.8205L93.2278 32.0641L93.2747 32.2284H93.3452L93.3922 32.0641L95.7994 28.6587Z" fill="white"></path><path d="M107.985 29.1519L107.386 30.9837C106.157 30.5923 104.944 30.3966 103.746 30.3966C103.221 30.3966 102.842 30.4357 102.607 30.514C102.38 30.5923 102.266 30.7293 102.266 30.925C102.266 31.1755 102.482 31.3595 102.912 31.4769C103.061 31.5161 103.672 31.6217 104.744 31.794C105.253 31.8723 105.676 31.9505 106.012 32.0288C106.349 32.1071 106.682 32.2128 107.01 32.3459C107.339 32.479 107.594 32.6316 107.774 32.8038C107.961 32.9761 108.11 33.1913 108.22 33.4497C108.337 33.708 108.396 34.0133 108.396 34.3656C108.396 35.2894 108.036 35.9783 107.316 36.4323C106.595 36.8864 105.562 37.1134 104.216 37.1134C102.329 37.1134 100.708 36.6985 99.3541 35.8687L100.434 34.119C100.912 34.4008 101.515 34.6435 102.243 34.8471C102.971 35.0506 103.699 35.1485 104.427 35.1406C105.421 35.1328 105.918 34.9293 105.918 34.53C105.918 34.4596 105.899 34.393 105.86 34.3304C105.82 34.2678 105.754 34.2169 105.66 34.1777C105.574 34.1308 105.484 34.0916 105.39 34.0603C105.296 34.029 105.159 33.9977 104.979 33.9664C104.807 33.9272 104.646 33.8998 104.497 33.8842C104.356 33.8607 104.165 33.8294 103.922 33.7902C103.679 33.7511 103.464 33.7159 103.276 33.6845C102.689 33.5906 102.204 33.4888 101.82 33.3792C101.436 33.2618 101.084 33.1091 100.763 32.9213C100.45 32.7334 100.215 32.4985 100.059 32.2167C99.9021 31.9349 99.816 31.5943 99.8003 31.1951C99.7612 30.2713 100.102 29.5824 100.822 29.1284C101.55 28.6743 102.603 28.4395 103.981 28.4238C104.889 28.4238 105.683 28.5021 106.364 28.6587C107.046 28.8074 107.586 28.9718 107.985 29.1519Z" fill="white"></path><path d="M118.712 28.6587V30.7019H115.388V36.8785H112.946V30.7019H109.623V28.6587H118.712Z" fill="white"></path><path d="M120.47 28.6587H128.302V30.6902H122.901V31.794H128.009V33.6845H122.901V34.8471H128.361V36.8785H120.47V28.6587Z" fill="white"></path><path d="M142.212 28.6587V36.8785H139.782V31.8879L139.84 31.3008H139.77L139.664 31.4887L137.151 35.4694H135.261L132.618 31.3008H132.548L132.63 31.8879V36.8785H130.2V28.6587H133.487L136.106 32.7686L136.165 32.9213H136.235L136.294 32.7686L138.913 28.6587H142.212Z" fill="white"></path><path d="M152.591 29.1519L151.992 30.9837C150.763 30.5923 149.549 30.3966 148.351 30.3966C147.827 30.3966 147.447 30.4357 147.212 30.514C146.985 30.5923 146.872 30.7293 146.872 30.925C146.872 31.1755 147.087 31.3595 147.518 31.4769C147.666 31.5161 148.277 31.6217 149.35 31.794C149.858 31.8723 150.281 31.9505 150.618 32.0288C150.954 32.1071 151.287 32.2128 151.616 32.3459C151.945 32.479 152.199 32.6316 152.379 32.8038C152.567 32.9761 152.716 33.1913 152.825 33.4497C152.943 33.708 153.002 34.0133 153.002 34.3656C153.002 35.2894 152.641 35.9783 151.921 36.4323C151.201 36.8864 150.168 37.1134 148.821 37.1134C146.935 37.1134 145.314 36.6985 143.96 35.8687L145.04 34.119C145.518 34.4008 146.12 34.6435 146.848 34.8471C147.576 35.0506 148.304 35.1485 149.033 35.1406C150.027 35.1328 150.524 34.9293 150.524 34.53C150.524 34.4596 150.504 34.393 150.465 34.3304C150.426 34.2678 150.359 34.2169 150.266 34.1777C150.179 34.1308 150.089 34.0916 149.995 34.0603C149.901 34.029 149.764 33.9977 149.584 33.9664C149.412 33.9272 149.252 33.8998 149.103 33.8842C148.962 33.8607 148.77 33.8294 148.528 33.7902C148.285 33.7511 148.07 33.7159 147.882 33.6845C147.295 33.5906 146.809 33.4888 146.426 33.3792C146.042 33.2618 145.69 33.1091 145.369 32.9213C145.056 32.7334 144.821 32.4985 144.664 32.2167C144.508 31.9349 144.422 31.5943 144.406 31.1951C144.367 30.2713 144.707 29.5824 145.428 29.1284C146.156 28.6743 147.208 28.4395 148.586 28.4238C149.494 28.4238 150.289 28.5021 150.97 28.6587C151.651 28.8074 152.191 28.9718 152.591 29.1519Z" fill="white"></path><rect width="7.28272" height="16.6587" rx="3.64136" transform="matrix(0.704078 -0.710123 0.704078 0.710123 0 11.7412)" fill="#6FCBFB"></rect><path fill-rule="evenodd" clip-rule="evenodd" d="M21.7444 46.7358C19.0189 46.4859 16.531 45.4063 14.531 43.7495L2.55927 55.824C1.14333 57.2521 1.14333 59.5675 2.55928 60.9956C3.97522 62.4237 6.27093 62.4237 7.68687 60.9956L21.3287 47.2367C21.4844 47.0797 21.6229 46.9119 21.7444 46.7358Z" fill="#00B6F9"></path><rect x="1.20654" y="7.78516" width="7.25152" height="54.8533" rx="3.62576" fill="#0097F6"></rect><ellipse cx="12.0876" cy="18.7602" rx="2.41717" ry="2.43793" fill="#60C0F2"></ellipse><path fill-rule="evenodd" clip-rule="evenodd" d="M45.8553 1.84256C44.4394 0.414458 42.1436 0.414459 40.7277 1.84256L23.959 18.7552H34.2142L45.8553 7.01418C47.2712 5.58608 47.2712 3.27067 45.8553 1.84256Z" fill="#0089E9"></path><path fill-rule="evenodd" clip-rule="evenodd" d="M33.5452 46.8013L40.2704 53.5842C41.6864 55.0124 43.9821 55.0124 45.398 53.5842C46.814 52.1561 46.814 49.8407 45.398 48.4126L43.8004 46.8013H33.5452Z" fill="#0045A5"></path><path fill-rule="evenodd" clip-rule="evenodd" d="M43.5093 0.475098C41.5069 0.475098 39.8835 2.0984 39.8835 4.10086V18.7641H47.1351V4.10086C47.1351 2.09841 45.5118 0.475098 43.5093 0.475098ZM47.1351 46.8002H39.8835V51.7027C39.8835 53.7051 41.5069 55.3284 43.5093 55.3284C45.5118 55.3284 47.1351 53.7051 47.1351 51.7027V46.8002Z" fill="#0065C4"></path></svg> 