<?xml version="1.0" encoding="UTF-8"?> <svg xmlns="http://www.w3.org/2000/svg" xmlns:xlink="http://www.w3.org/1999/xlink" version="1.1" id="Layer_2" x="0px" y="0px" viewBox="0 0 32 32" style="enable-background:new 0 0 32 32;" xml:space="preserve"> <style type="text/css"> .st0{fill:#FFFFFF;} </style> <g> <path class="st0" d="M16,0.5c-0.8,0-1.5,0.7-1.5,1.5v16.1L11,14.6c-1.4-1.4-3.5,0.7-2.1,2.1c0,0,6.1,6.1,6.1,6.1 c0.6,0.6,1.6,0.6,2.1,0c0,0,6.1-6.1,6.1-6.1c1.4-1.4-0.7-3.5-2.1-2.1c0,0-3.5,3.5-3.5,3.5V2C17.5,1.2,16.8,0.5,16,0.5z"></path> <path class="st0" d="M3.8,20.2c-0.8,0-1.5,0.7-1.5,1.5v2.2c0,4.2,3.4,7.6,7.6,7.6h12.2c4.2,0,7.6-3.4,7.6-7.6v-2.2 c0-0.8-0.7-1.5-1.5-1.5s-1.5,0.7-1.5,1.5v2.2c0,2.5-2.1,4.6-4.6,4.6H9.9c-2.5,0-4.6-2.1-4.6-4.6v-2.2C5.3,20.9,4.7,20.2,3.8,20.2z"></path> </g> </svg> 