<?xml version="1.0" encoding="UTF-8"?> <svg xmlns="http://www.w3.org/2000/svg" width="10" height="18" viewBox="0 0 10 18" fill="none"><path d="M1 17.9999C0.868393 18.0007 0.737931 17.9755 0.616094 17.9257C0.494256 17.8759 0.38344 17.8026 0.29 17.7099C0.196272 17.617 0.121877 17.5064 0.0711088 17.3845C0.0203401 17.2627 -0.00579834 17.132 -0.00579834 16.9999C-0.00579834 16.8679 0.0203401 16.7372 0.0711088 16.6154C0.121877 16.4935 0.196272 16.3829 0.29 16.2899L7.59 8.99994L0.29 1.70994C0.101696 1.52164 -0.00409126 1.26624 -0.00409126 0.999941C-0.00409126 0.868082 0.0218797 0.737514 0.07234 0.615692C0.1228 0.49387 0.196761 0.38318 0.29 0.289941C0.383238 0.196703 0.493928 0.122742 0.61575 0.0722818C0.737572 0.0218215 0.868141 -0.00415039 1 -0.00415039C1.2663 -0.00415039 1.5217 0.101638 1.71 0.289941L9.71 8.28994C9.80373 8.3829 9.87812 8.4935 9.92889 8.61536C9.97966 8.73722 10.0058 8.86793 10.0058 8.99994C10.0058 9.13195 9.97966 9.26266 9.92889 9.38452C9.87812 9.50638 9.80373 9.61698 9.71 9.70994L1.71 17.7099C1.61656 17.8026 1.50574 17.8759 1.38391 17.9257C1.26207 17.9755 1.13161 18.0007 1 17.9999Z" fill="white"></path></svg> 