<?xml version="1.0" encoding="UTF-8"?> <svg xmlns="http://www.w3.org/2000/svg" id="_Слой_2" data-name="Слой 2" viewBox="0 0 144 144"><defs><style> .cls-1 { fill: #fff; stroke-width: 0px; } </style></defs><g id="_Слой_1-2" data-name="Слой 1"><path class="cls-1" d="m8,16h108.69S2.34,130.34,2.34,130.34c-3.12,3.12-3.12,8.19,0,11.31,3.12,3.12,8.19,3.12,11.31,0L128,27.31v108.69c0,4.42,3.58,8,8,8,4.42,0,8-3.58,8-8V8c0-1.8-.61-3.6-1.81-5.07-.17-.2-.34-.4-.53-.59s-.38-.36-.59-.53C139.6.61,137.8,0,136,0H8C3.58,0,0,3.58,0,8s3.58,8,8,8Z"></path></g></svg> 