<?xml version="1.0" encoding="UTF-8"?> <svg xmlns="http://www.w3.org/2000/svg" width="158" height="158" viewBox="0 0 158 158" fill="none"><path d="M157.569 78.8133C157.569 118.618 128.073 151.525 89.7541 156.865C86.1712 157.362 82.5055 157.621 78.7846 157.621C74.4896 157.621 70.2718 157.279 66.1645 156.616C28.652 150.575 0 118.038 0 78.8133C0 35.2871 35.2767 0 78.7901 0C122.304 0 157.58 35.2871 157.58 78.8133H157.569Z" fill="#2D2D2D"></path><path d="M31.9533 34.7625L68.2899 83.3581L31.7269 122.87H39.9581L71.9722 88.2784L97.8362 122.87L125.842 122.87L87.463 71.5405L121.498 34.7625H113.266L83.7862 66.6202L59.9648 34.7625H31.9587H31.9533ZM44.0544 40.8259H56.9174L113.73 116.806H100.867L44.0544 40.8259Z" fill="white"></path></svg> 