<?xml version="1.0" encoding="UTF-8"?> <svg xmlns="http://www.w3.org/2000/svg" width="158" height="158" viewBox="0 0 158 158" fill="none"><path d="M78.9668 0L78.6079 0C35.1939 0 0 35.2044 0 78.6311L0 78.9901C0 122.417 35.1939 157.621 78.6079 157.621H78.9668C122.381 157.621 157.575 122.417 157.575 78.9901V78.6311C157.575 35.2044 122.381 0 78.9668 0Z" fill="#2D2D2D"></path><path d="M29.8444 76.1241C30.0653 76.0136 30.2862 75.9087 30.5015 75.8093C34.2445 74.0753 38.0371 72.4518 41.8243 70.8282C42.0285 70.8282 42.3707 70.5908 42.5639 70.5135C42.8565 70.3865 43.1492 70.265 43.4418 70.138C44.0049 69.895 44.568 69.6575 45.1256 69.4146C46.2518 68.9341 47.3724 68.4537 48.4986 67.9732L55.2392 65.0851C59.733 63.1634 64.2324 61.2361 68.7262 59.3144C73.22 57.3926 77.7192 55.4654 82.213 53.5436C86.7068 51.6219 91.206 49.6946 95.6998 47.7729C100.194 45.8512 104.693 43.9239 109.187 42.0022C110.186 41.5714 111.268 40.9308 112.339 40.7431C113.239 40.5829 114.117 40.2737 115.022 40.1025C116.739 39.7767 118.632 39.6442 120.278 40.3566C120.846 40.6051 121.371 40.953 121.807 41.3892C123.894 43.4545 123.601 46.8452 123.159 49.7498C120.084 69.9944 117.009 90.2444 113.929 110.489C113.509 113.267 112.935 116.315 110.743 118.071C108.889 119.556 106.25 119.722 103.959 119.093C101.668 118.458 99.6471 117.127 97.6652 115.818C89.445 110.373 81.2193 104.928 72.9991 99.4831C71.0448 98.1909 68.8698 96.5011 68.8918 94.1542C68.9029 92.7405 69.7475 91.4814 70.6087 90.3604C77.7523 81.0389 88.0593 74.6331 95.7275 65.7423C96.8095 64.4887 97.6597 62.2246 96.1747 61.5012C95.2914 61.0704 94.2755 61.6558 93.4695 62.2135C83.3336 69.2544 73.2034 76.3008 63.0676 83.3416C59.7607 85.6389 56.2938 88.0024 52.3079 88.5657C48.7416 89.0737 45.1532 88.0797 41.7028 87.0636C38.81 86.2132 35.9227 85.3407 33.0464 84.4405C31.5172 83.9656 29.9383 83.4521 28.7569 82.3752C27.5755 81.2984 26.8965 79.4871 27.6087 78.0513C28.0559 77.1512 28.9226 76.5824 29.8335 76.1185L29.8444 76.1241Z" fill="white"></path></svg> 