<?xml version="1.0" encoding="UTF-8"?> <svg xmlns="http://www.w3.org/2000/svg" width="24" height="24" viewBox="0 0 24 24" fill="none"><path d="M6 7C6 6.44771 6.44771 6 7 6L17 6C17.0563 6 17.1112 6.00667 17.165 6.01562C17.2078 6.02275 17.2503 6.03125 17.292 6.04394C17.3407 6.05879 17.3874 6.07784 17.4326 6.09961C17.4468 6.10641 17.4607 6.11359 17.4746 6.12109C17.6201 6.19984 17.7442 6.31268 17.835 6.45019C17.8599 6.48793 17.8811 6.52731 17.9004 6.56738C17.9222 6.6126 17.9412 6.65932 17.9561 6.70801C17.9622 6.72831 17.9668 6.74895 17.9717 6.76953C17.9744 6.78089 17.9772 6.7922 17.9795 6.80371C17.9816 6.81407 17.9826 6.82455 17.9844 6.83496C17.9933 6.88875 18 6.94366 18 7L18 17C18 17.5523 17.5523 18 17 18C16.4477 18 16 17.5523 16 17L16 9.41406L7.70703 17.707C7.31651 18.0976 6.68349 18.0976 6.29297 17.707C5.90244 17.3165 5.90244 16.6835 6.29297 16.293L14.5859 8L7 8C6.44771 8 6 7.55229 6 7Z" fill="black"></path><mask id="mask0_1852_11328" style="mask-type:luminance" maskUnits="userSpaceOnUse" x="6" y="6" width="12" height="12"><path d="M6 7C6 6.44771 6.44771 6 7 6L17 6C17.0563 6 17.1112 6.00667 17.165 6.01562C17.2078 6.02275 17.2503 6.03125 17.292 6.04394C17.3407 6.05879 17.3874 6.07784 17.4326 6.09961C17.4468 6.10641 17.4607 6.11359 17.4746 6.12109C17.6201 6.19984 17.7442 6.31268 17.835 6.45019C17.8599 6.48793 17.8811 6.52731 17.9004 6.56738C17.9222 6.6126 17.9412 6.65932 17.9561 6.70801C17.9622 6.72831 17.9668 6.74895 17.9717 6.76953C17.9744 6.78089 17.9772 6.7922 17.9795 6.80371C17.9816 6.81407 17.9826 6.82455 17.9844 6.83496C17.9933 6.88875 18 6.94366 18 7L18 17C18 17.5523 17.5523 18 17 18C16.4477 18 16 17.5523 16 17L16 9.41406L7.70703 17.707C7.31651 18.0976 6.68349 18.0976 6.29297 17.707C5.90244 17.3165 5.90244 16.6835 6.29297 16.293L14.5859 8L7 8C6.44771 8 6 7.55229 6 7Z" fill="white"></path></mask><g mask="url(#mask0_1852_11328)"><rect y="24" width="24" height="24" transform="rotate(-90 0 24)" fill="#FDFFFF"></rect></g></svg> 